<?xml version="1.0" encoding="iso-8859-1"?>
<!-- Generator: Adobe Illustrator 19.0.0, SVG Export Plug-In . SVG Version: 6.00 Build 0)  -->
<svg version="1.1" id="Layer_1" xmlns="http://www.w3.org/2000/svg" xmlns:xlink="http://www.w3.org/1999/xlink" x="0px" y="0px"
	 viewBox="0 0 512 512" style="enable-background:new 0 0 512 512;" xml:space="preserve">
<g>
	<g>
		<path d="M316.362,73.297c-4.466,0-8.084,3.62-8.084,8.084v30.72h-35.57v-30.72c0-4.465-3.619-8.084-8.084-8.084
			c-4.466,0-8.084,3.62-8.084,8.084v81.92c0,4.465,3.618,8.084,8.084,8.084c4.466,0,8.084-3.62,8.084-8.084v-35.032h35.57v35.032
			c0,4.465,3.618,8.084,8.084,8.084c4.466,0,8.084-3.62,8.084-8.084v-81.92C324.446,76.916,320.828,73.297,316.362,73.297z"/>
	</g>
</g>
<g>
	<g>
		<path d="M238.754,73.297h-43.116c-4.466,0-8.084,3.62-8.084,8.084v38.804v43.116c0,4.465,3.618,8.084,8.084,8.084
			c4.466,0,8.084-3.62,8.084-8.084v-35.032h35.032c4.466,0,8.084-3.62,8.084-8.084V81.381
			C246.838,76.916,243.219,73.297,238.754,73.297z M230.669,112.101h-26.947V89.465h26.947V112.101z"/>
	</g>
</g>
<g>
	<g>
		<path d="M381.036,0H130.964c-4.466,0-8.084,3.62-8.084,8.084v53.895c0,4.465,3.618,8.084,8.084,8.084
			c4.466,0,8.084-3.62,8.084-8.084v-45.81h233.903v216.643L300.5,293.187h-89l-72.452-60.376V98.627
			c0-4.465-3.618-8.084-8.084-8.084c-4.466,0-8.084,3.62-8.084,8.084v137.971c0,2.399,1.065,4.675,2.908,6.211l74.7,62.25v121.249
			c0,4.465,3.619,8.084,8.084,8.084h9.162v69.524c0,4.465,3.618,8.084,8.084,8.084h60.362c4.466,0,8.084-3.62,8.084-8.084v-69.524
			h9.162c4.466,0,8.084-3.62,8.084-8.084V305.058l74.7-62.25c1.843-1.536,2.908-3.811,2.908-6.211V8.084
			C389.12,3.62,385.502,0,381.036,0z M278.097,495.832h-44.194v-61.44h44.194V495.832z M295.343,418.223h-78.686V309.356h78.686
			V418.223z"/>
	</g>
</g>
<g>
	<g>
		<path d="M346.543,38.804H165.457c-4.466,0-8.084,3.62-8.084,8.084v150.905c0,4.465,3.619,8.084,8.084,8.084h181.086
			c4.466,0,8.084-3.62,8.084-8.084V46.888C354.627,42.424,351.009,38.804,346.543,38.804z M338.459,189.709H173.541V54.973h164.918
			V189.709z"/>
	</g>
</g>
<g>
	<g>
		<path d="M215.04,215.579c-15.156,0-27.486,12.33-27.486,27.486c0,15.156,12.33,27.486,27.486,27.486
			c15.156,0,27.486-12.33,27.486-27.486C242.526,227.909,230.196,215.579,215.04,215.579z M215.04,254.383
			c-6.241,0-11.318-5.077-11.318-11.318c0-6.241,5.077-11.318,11.318-11.318c6.241,0,11.318,5.077,11.318,11.318
			C226.358,249.306,221.281,254.383,215.04,254.383z"/>
	</g>
</g>
<g>
	<g>
		<path d="M296.96,215.579c-15.156,0-27.486,12.33-27.486,27.486c0,15.156,12.33,27.486,27.486,27.486
			c15.156,0,27.486-12.33,27.486-27.486C324.446,227.909,312.116,215.579,296.96,215.579z M296.96,254.383
			c-6.241,0-11.318-5.077-11.318-11.318c0-6.241,5.077-11.318,11.318-11.318s11.318,5.077,11.318,11.318
			C308.278,249.306,303.201,254.383,296.96,254.383z"/>
	</g>
</g>
<g>
	<g>
		<path d="M273.246,353.995c-4.466,0-8.084,3.62-8.084,8.084v29.736c0,4.465,3.618,8.084,8.084,8.084
			c4.466,0,8.084-3.62,8.084-8.084v-29.736C281.331,357.614,277.712,353.995,273.246,353.995z"/>
	</g>
</g>
<g>
	<g>
		<path d="M273.246,323.368c-4.466,0-8.084,3.62-8.084,8.084v8.511c0,4.465,3.618,8.084,8.084,8.084c4.466,0,8.084-3.62,8.084-8.084
			v-8.511C281.331,326.988,277.712,323.368,273.246,323.368z"/>
	</g>
</g>
<g>
</g>
<g>
</g>
<g>
</g>
<g>
</g>
<g>
</g>
<g>
</g>
<g>
</g>
<g>
</g>
<g>
</g>
<g>
</g>
<g>
</g>
<g>
</g>
<g>
</g>
<g>
</g>
<g>
</g>
</svg>
