<svg height="512pt" viewBox="-81 0 512 512" width="512pt" xmlns="http://www.w3.org/2000/svg"><path d="m197.574219 291.011719v-132.070313c0-4.199218-3.402344-7.601562-7.605469-7.601562-4.199219 0-7.601562 3.402344-7.601562 7.601562v135.910156c0 2.460938 1.1875 4.765626 3.191406 6.191407 28.394531 20.230469 45.34375 53.089843 45.34375 87.902343 0 59.464844-48.378906 107.847657-107.847656 107.847657-59.464844 0-107.847657-48.382813-107.847657-107.847657 0-34.8125 16.953125-67.671874 45.347657-87.902343 2-1.425781 3.191406-3.730469 3.191406-6.191407v-220.332031c0-32.703125 26.605468-59.3125 59.308594-59.3125 32.703124 0 59.3125 26.609375 59.3125 59.3125v54.003907c0 4.199218 3.402343 7.605468 7.601562 7.605468 4.203125 0 7.605469-3.40625 7.605469-7.605468v-54.003907c0-41.089843-33.429688-74.519531-74.519531-74.519531-41.089844 0-74.519532 33.429688-74.519532 74.519531v216.492188c-30.460937 23.222656-48.535156 59.539062-48.535156 97.933593 0 67.851563 55.203125 123.054688 123.054688 123.054688 67.855468 0 123.058593-55.203125 123.058593-123.054688 0-38.398437-18.074219-74.710937-48.539062-97.933593zm0 0"/><path d="m123.054688 456.238281c-13.867188 0-27.191407-4.203125-38.535157-12.15625-3.4375-2.414062-8.183593-1.582031-10.59375 1.859375-2.410156 3.4375-1.578125 8.179688 1.863281 10.589844 13.914063 9.757812 30.257813 14.914062 47.265626 14.914062 45.492187 0 82.503906-37.007812 82.503906-82.5 0-26.632812-12.976563-51.773437-34.707032-67.257812l-13.832031-9.851562v-237.316407c0-18.730469-15.234375-33.964843-33.964843-33.964843-18.726563 0-33.964844 15.234374-33.964844 33.964843v237.316407l-13.828125 9.851562c-21.734375 15.484375-34.707031 40.625-34.707031 67.257812 0 16.507813 4.878906 32.449219 14.113281 46.105469 2.351562 3.476563 7.078125 4.390625 10.558593 2.039063 3.480469-2.351563 4.390626-7.078125 2.039063-10.558594-7.523437-11.128906-11.503906-24.128906-11.503906-37.585938 0-21.726562 10.589843-42.238281 28.324219-54.871093l17.019531-12.128907c2.003906-1.425781 3.195312-3.734374 3.195312-6.191406v-29.359375h37.511719v29.359375c0 2.457032 1.1875 4.765625 3.191406 6.191406l17.023438 12.128907c17.734375 12.632812 28.320312 33.144531 28.320312 54.871093 0 37.105469-30.1875 67.292969-67.292968 67.292969zm18.757812-301.25h-37.511719v-42.890625h37.511719zm-37.511719 15.207031h37.511719v42.890626h-37.511719zm18.753907-114.433593c10.34375 0 18.757812 8.414062 18.757812 18.757812v22.371094h-37.511719v-22.371094c0-10.34375 8.414063-18.757812 18.753907-18.757812zm-18.753907 215.425781v-42.890625h37.511719v42.890625zm0 0"/><path d="m341.5625 170.058594c-5.304688 0-8.203125 2.035156-8.601562 6.03125-1.144532 8.964844-2.871094 22.503906-23.984376 22.503906-17.304687 0-25.71875-8.789062-25.71875-26.871094v-58.039062c0-17.832032 8.460938-26.875 25.140626-26.875 19.402343 0 24.066406 11.796875 24.5625 21.695312.214843 3.914063 3.273437 6.070313 8.601562 6.070313 5.449219 0 8.605469-1.53125 8.605469-9.375 0-20.054688-17.335938-34.058594-42.15625-34.058594-26.667969 0-41.964844 15.507813-41.964844 42.542969v58.039062c0 14.53125 4.152344 25.597656 12.34375 32.890625 7.085937 6.3125 17.261719 9.648438 29.429687 9.648438 24.933594 0 42.347657-14.242188 42.347657-34.636719 0-7.964844-3.292969-9.566406-8.605469-9.566406zm0 0"/><path d="m276.800781 49.445312c0-13.695312-11.144531-24.839843-24.839843-24.839843-13.699219 0-24.839844 11.144531-24.839844 24.839843 0 13.695313 11.140625 24.839844 24.839844 24.839844 13.695312 0 24.839843-11.144531 24.839843-24.839844zm-24.839843 9.632813c-5.3125 0-9.632813-4.324219-9.632813-9.632813 0-5.3125 4.320313-9.632812 9.632813-9.632812 5.308593 0 9.628906 4.320312 9.628906 9.632812 0 5.308594-4.320313 9.632813-9.628906 9.632813zm0 0"/></svg>