<?xml version="1.0" standalone="no"?><!DOCTYPE svg PUBLIC "-//W3C//DTD SVG 1.1//EN" "http://www.w3.org/Graphics/SVG/1.1/DTD/svg11.dtd"><svg class="icon" height="512" viewBox="0 0 1024 1024" version="1.1" xmlns="http://www.w3.org/2000/svg"><path d="M605.184 681.984c-14.336 0-26.0096-11.6736-26.0096-26.0096s11.6736-26.0096 26.0096-26.0096c14.336 0 26.0096 11.6736 26.0096 26.0096S619.52 681.984 605.184 681.984z m-183.0912-21.9136c-14.336 0-26.0096-11.6736-26.0096-26.0096 0-14.336 11.6736-26.0096 26.0096-26.0096 14.336 0 26.0096 11.6736 26.0096 26.0096 0 14.336-11.6736 26.0096-26.0096 26.0096z m102.6048-42.496c-18.432 0-33.3824-14.9504-33.3824-33.3824s14.9504-33.3824 33.3824-33.3824 33.3824 14.9504 33.3824 33.3824c0 18.3296-14.9504 33.3824-33.3824 33.3824z m102.4-36.7616c-14.336 0-26.0096-11.6736-26.0096-26.0096 0-14.336 11.6736-26.0096 26.0096-26.0096 14.336 0 26.0096 11.6736 26.0096 26.0096 0 14.336-11.6736 26.0096-26.0096 26.0096z m-225.5872-21.9136c-18.432 0-33.3824-14.9504-33.3824-33.3824s14.9504-33.3824 33.3824-33.3824 33.3824 14.9504 33.3824 33.3824-14.9504 33.3824-33.3824 33.3824z" fill="#272536" /><path d="M333.2096 786.2272L197.7344 247.3984l33.6896-8.4992 28.5696 113.5616c10.5472-10.1376 26.0096-22.9376 45.3632-34.2016 31.9488-18.5344 66.048-27.9552 101.5808-27.9552 27.4432 0 55.5008 5.8368 83.456 17.3056 36.1472 14.848 62.464 29.184 83.6608 40.7552l0.2048 0.1024c29.4912 16.0768 48.9472 26.7264 74.5472 26.7264s58.9824-10.752 114.7904-37.0688l26.4192-99.4304 33.5872 8.9088-29.3888 110.592-1.2288 4.4032-112.64 423.6288h-347.136z m320.4096-34.816L728.9856 467.968c-42.7008 18.7392-71.8848 26.8288-96.4608 26.8288-29.3888 0-52.0192-11.1616-83.2512-28.16l-0.1024-0.1024c-18.432-10.0352-41.3696-22.528-72.3968-35.328-20.992-8.6016-42.0864-13.0048-62.5664-13.0048-65.4336 0-108.9536 43.7248-122.5728 59.6992l68.7104 273.408h293.2736zM413.7984 383.488c25.088 0 50.688 5.3248 76.1856 15.7696 33.1776 13.6192 56.9344 26.624 75.9808 37.0688 26.3168 14.4384 43.7248 23.8592 66.6624 23.8592 23.8592 0 54.1696-10.0352 107.9296-35.6352l11.4688-43.1104c-44.8512 19.5584-75.5712 28.0576-101.7856 28.5696h-2.1504c-33.5872 0-57.4464-13.0048-90.4192-31.0272-20.48-11.1616-45.8752-24.9856-80.384-39.2192-23.4496-9.6256-47.0016-14.5408-69.8368-14.5408-73.6256 0-122.2656 49.4592-137.3184 67.1744l11.5712 45.9776c12.1856-11.3664 25.3952-21.2992 39.5264-29.3888 28.9792-16.9984 60.2112-25.4976 92.5696-25.4976z" fill="#272536" /></svg>