<?xml version="1.0" encoding="iso-8859-1"?>
<!-- Generator: Adobe Illustrator 19.0.0, SVG Export Plug-In . SVG Version: 6.00 Build 0)  -->
<svg version="1.1" id="Capa_1" xmlns="http://www.w3.org/2000/svg" xmlns:xlink="http://www.w3.org/1999/xlink" x="0px" y="0px"
	 viewBox="0 0 512 512" style="enable-background:new 0 0 512 512;" xml:space="preserve">
<g>
	<g>
		<circle cx="166" cy="437" r="15"/>
	</g>
</g>
<g>
	<g>
		<path d="M226,150H106c-8.284,0-15,6.716-15,15v90c0,8.284,6.716,15,15,15h120c8.284,0,15-6.716,15-15v-90
			C241,156.716,234.284,150,226,150z M211,240h-90v-60h90V240z"/>
	</g>
</g>
<g>
	<g>
		<path d="M421,91.509V75c0-41.355-33.645-75-75-75H166c-41.355,0-75,33.645-75,75v15.301c-33.606,3.144-60,31.499-60,65.913
			v107.573c0,17.687,6.887,34.314,19.394,46.82C56.737,316.951,61,328.045,61,338.213v107.573C61,482.297,90.703,512,127.213,512
			h77.573c36.51,0,66.213-29.703,66.213-66.213V338.213c0-10.168,4.263-21.263,10.606-27.607
			C294.113,298.101,301,281.473,301,263.787V156.213C301,119.703,271.297,90,234.787,90H121V75c0-24.813,20.187-45,45-45h180
			c24.813,0,45,20.187,45,45v16.509c-34.192,6.968-60,37.271-60,73.491v90c0,8.284,6.716,15,15,15h15v99.918
			c0,46.203,10.921,92.466,31.583,133.79C395.125,508.79,400.318,512,406,512s10.875-3.21,13.417-8.292
			C440.079,462.384,451,416.121,451,369.918V270h15c8.284,0,15-6.716,15-15v-90C481,128.781,455.192,98.478,421,91.509z
			 M234.787,120C254.755,120,271,136.245,271,156.213v107.573c0,9.673-3.767,18.767-10.606,25.607
			C248.431,301.355,241,320.063,241,338.213v107.573C241,465.755,224.755,482,204.787,482h-77.573
			C107.245,482,91,465.755,91,445.787V338.213c0-18.151-7.431-36.858-19.394-48.82C64.767,282.554,61,273.459,61,263.787V156.213
			C61,136.245,77.245,120,97.213,120H234.787z M421,369.918c0,30.045-5.134,60.123-15,88.527c-9.866-28.404-15-58.482-15-88.527V270
			h30V369.918z M451,240c-9.109,0-75.331,0-90,0v-30h90V240z M451,180h-90v-15c0-24.813,20.187-45,45-45s45,20.187,45,45V180z"/>
	</g>
</g>
<g>
	<g>
		<path d="M196,300h-60c-8.284,0-15,6.716-15,15s6.716,15,15,15h60c8.284,0,15-6.716,15-15S204.284,300,196,300z"/>
	</g>
</g>
<g>
	<g>
		<path d="M196,362h-60c-8.284,0-15,6.716-15,15s6.716,15,15,15h60c8.284,0,15-6.716,15-15S204.284,362,196,362z"/>
	</g>
</g>
<g>
</g>
<g>
</g>
<g>
</g>
<g>
</g>
<g>
</g>
<g>
</g>
<g>
</g>
<g>
</g>
<g>
</g>
<g>
</g>
<g>
</g>
<g>
</g>
<g>
</g>
<g>
</g>
<g>
</g>
</svg>
